# xmcd CD database file
#
# Track frame offsets:
#	150
#	24701
#	69877
#	91573
#	149135
#	186340
#	246880
#	268525
#	330037
#
# Disc length: 4680 seconds
#
# Revision: 0
# Processed by: cddbd v1.5.1PL2 Copyright (c) Steve Scherf et al.
# Submitted via: CDex 1.51
#
DISCID=75124609
DTITLE=PAIVA NETTO - AOS PES DE JESUS
DYEAR=2005
DGENRE=New Age
TTITLE0=PRECE PARA TER TRANQUILIDADE ( Instrumental )
TTITLE1=AOS PES DE JESUS - 10'02
TTITLE2=CANTICO SUAVE ( Instrumental )
TTITLE3=VIVER SOB A MISERICORDIA DE DEUS - 12'47
TTITLE4=DEUS E A NOSSA FORTALEZA ( Instrumental )
TTITLE5=PRECE DA CIDADANIA INTEGRAL - 13'27
TTITLE6=AMAR COM O AMOR DE DEUS ( Instrumental )
TTITLE7=PRECE DA NOVA ALIANCA COM DEUS - 13'40
TTITLE8=A FACE DE DEUS E O AMOR ( Coro e Orquestra )
EXTD=YEAR: 2005
EXTT0=
EXTT1=
EXTT2=
EXTT3=
EXTT4=
EXTT5=
EXTT6=
EXTT7=
EXTT8=
PLAYORDER=
